<?xml version="1.0" encoding="utf-8"?>
<!-- Generator: Adobe Illustrator 21.0.0, SVG Export Plug-In . SVG Version: 6.00 Build 0)  -->
<svg version="1.1" xmlns="http://www.w3.org/2000/svg" xmlns:xlink="http://www.w3.org/1999/xlink" x="0px" y="0px"
	 viewBox="0 0 1200 1000" style="enable-background:new 0 0 1200 1000;" xml:space="preserve">
<style type="text/css">
	.st0{fill:#C1272D;}
	.st1{fill:#FCEE21;}
	.st2{fill:#FBB03B;}
	.st3{fill:#CE6B09;}
	.st4{fill:#FFFFFF;}
	.st5{opacity:0.79;fill:#FFFFFF;}
	.st6{opacity:0.5;}
	.st7{fill:none;stroke:#000000;stroke-width:10;stroke-miterlimit:10;}
</style>
<g id="Color">
	<polygon class="st0" points="443,390 720,390 726,398 655,564 641,572 628,572 619,568 608,563 585,551 531,572 507,567 439,397 	
		"/>
	<polygon class="st1" points="686,500 480,500 460,448 707,448 	"/>
	<polygon class="st2" points="449,382 449,313 460,308 495,308 501,312 499,256 510,247 547,247 554,291 560,324 567,308 572,276 
		614,274 621,275 629,220 659,220 676,224 674,311 707,308 717,319 720,341 720,387 449,390 	"/>
	<polygon class="st3" points="494,311 484,390.5 504,390.5 	"/>
	<polygon class="st3" points="576,271 584,386 560.1,390 572,276 	"/>
	<polygon class="st3" points="633,217 642,389 612.1,389 	"/>
	<polygon class="st3" points="674.1,308 694,308 681.5,387.4 670.5,390.5 	"/>
	<path class="st4" d="M470.4,375.9L470.4,375.9c-1.6-0.2-2.9-1.6-2.7-3.3l4.6-47.8c0.2-1.6,1.6-2.9,3.3-2.7h0
		c1.6,0.2,2.9,1.6,2.7,3.3l-4.6,47.8C473.5,374.8,472,376,470.4,375.9z"/>
	<path class="st4" d="M657.4,313.9l-4.2-0.4c-1.6-0.2-2.9-1.6-2.7-3.3l4.6-47.8c0.2-1.6,1.6-2.9,3.3-2.7l4.2,0.4
		c1.6,0.2,2.9,1.6,2.7,3.3l-4.6,47.8C660.5,312.8,659,314,657.4,313.9z"/>
	<path class="st4" d="M599.4,367.9l-4.2-0.4c-1.6-0.2-2.9-1.6-2.7-3.3l4.6-47.8c0.2-1.6,1.6-2.9,3.3-2.7l4.2,0.4
		c1.6,0.2,2.9,1.6,2.7,3.3l-4.6,47.8C602.5,366.8,601,368,599.4,367.9z"/>
	<path class="st4" d="M707,379L707,379c-1.7,0-3-1.4-3-3v-38c0-1.6,1.3-3,3-3l0,0c1.6,0,3,1.4,3,3v38C710,377.6,708.6,379,707,379z"
		/>
	<path class="st4" d="M525,347.4l-1.4,0.2c-1.6,0.2-3.1-1-3.4-2.6l-9.3-73.4c-0.2-1.6,1-3.1,2.6-3.4l1.4-0.2c1.6-0.2,3.1,1,3.4,2.6
		l9.3,73.4C527.8,345.7,526.7,347.2,525,347.4z"/>
	<path class="st5" d="M617,431H491c-5.5,0-10-4.5-10-10l0,0c0-5.5,4.5-10,10-10h126c5.5,0,10,4.5,10,10l0,0
		C627,426.5,622.5,431,617,431z"/>
	<polygon class="st6" points="657.9,560.6 642,572 619,566 670,390 704,390.5 726,390 	"/>
	<polygon class="st3" points="560.1,387.4 546,389 535,247 548,247 	"/>
</g>
<g id="Borde">
	<path class="st7" d="M489.4,308h-28.8c-6.4,0-11.6,5.2-11.6,11.6V390h52v-70.4C501,313.2,495.8,308,489.4,308z"/>
	<path class="st7" d="M621.5,569.1L583,550l-41.9,19.6c-15.8,7.4-34.5-0.5-40.2-17l-58-154.8c-1.4-3.8,1.4-7.8,5.4-7.8h272
		c4.1,0,6.9,4.2,5.4,8L662,553.3C655.8,569.5,637,576.8,621.5,569.1z"/>
	<path class="st7" d="M489.4,308h-28.8c-6.4,0-11.6,5.2-11.6,11.6V390h52v-70.4C501,313.2,495.8,308,489.4,308z"/>
	<path class="st7" d="M538.3,244.4l-28.7,2.8c-6.4,0.6-11,6.3-10.4,12.6L512,390l51.7-2.8L551,254.8
		C550.4,248.5,544.7,243.8,538.3,244.4z"/>
	<path class="st7" d="M610.8,273.6l-28.7-2.5c-6.4-0.6-12,4.1-12.6,10.5l-9.3,106L612,390l9.3-103.9
		C621.9,279.8,617.1,274.1,610.8,273.6z"/>
	<path class="st7" d="M667.4,219.2l-28.7-2.5c-6.4-0.6-12,4.1-12.6,10.5L614,390h50l13.9-158.2C678.4,225.4,673.7,219.8,667.4,219.2
		z"/>
	<path class="st7" d="M708.4,308h-28.8c-6.4,0-8.6,5.6-8.6,12l-3,70h52v-70.4C720,313.2,714.8,308,708.4,308z"/>
</g>
</svg>
